<?xml version="1.0" encoding="iso-8859-1"?><svg viewBox="0 0 512 512" xmlns="http://www.w3.org/2000/svg" xmlns:xlink="http://www.w3.org/1999/xlink"><style>:root>svg{display:none}:root>svg:target{display:block}</style><svg viewBox="0 0 512 512" id="factory" xmlns="http://www.w3.org/2000/svg"><path d="M504.5 497h-24.564V393.912c4.909-4.316 8.016-10.635 8.016-17.67 0-12.976-10.557-23.532-23.532-23.532h-49.067l-7.577-121.226a7.5 7.5 0 00-7.485-7.032h-32.065a7.5 7.5 0 00-7.485 7.032l-7.577 121.226h-17.973l-7.577-121.226a7.5 7.5 0 00-7.485-7.032h-32.064a7.5 7.5 0 00-7.485 7.032l-7.577 121.226H255.03l-7.577-121.226a7.5 7.5 0 00-7.485-7.032h-32.064a7.5 7.5 0 00-7.485 7.032l-7.577 121.226h-20.89l-4.646-209.102a7.5 7.5 0 00-7.498-7.333h-48.097a7.5 7.5 0 00-7.498 7.333l-5.359 241.167h-59.29c-12.976 0-23.532 10.557-23.532 23.532 0 7.035 3.107 13.354 8.016 17.67V497H7.5a7.5 7.5 0 000 15h497a7.5 7.5 0 000-15zM98.139 416.84H71.632a7.5 7.5 0 000 15h26.174L96.358 497h-57.31v-65.174c.172.004.343.013.516.013a7.5 7.5 0 000-15c-4.705 0-8.532-3.828-8.532-8.532 0-4.705 3.828-8.532 8.532-8.532h58.954l-.379 17.065zm277.132-177.388h17.973l7.079 113.258h-32.13l7.078-113.258zm-80.161 0h17.973l7.079 113.258h-32.13l7.078-113.258zm-80.161 0h17.973L240 352.71h-32.13l7.079-113.258zM128.259 497h-16.896l7.681-345.726h33.427l4.477 201.436h-13.173c-12.976 0-23.533 10.557-23.533 23.532 0 7.035 3.107 13.354 8.017 17.67V497zM464.42 384.774h-16.032a7.5 7.5 0 000 15h16.032c.173 0 .344-.01.516-.013V497H143.258v-97.239c.172.004.343.013.516.013h272.555a7.5 7.5 0 000-15H143.774c-4.705 0-8.533-3.828-8.533-8.532 0-4.704 3.828-8.532 8.533-8.532h320.645c4.705 0 8.533 3.827 8.533 8.532s-3.828 8.532-8.532 8.532zM416.323 0c-22.594 0-44.134 7.885-61.353 22.334-12.362-9.276-27.344-14.318-42.857-14.318-18.832 0-36.81 7.435-50.173 20.58a55.564 55.564 0 00-21.972-4.548c-22.298 0-42.175 13.351-50.899 33.332a34.082 34.082 0 00-9.222-1.268c-15.493 0-28.816 10.075-33.575 24.188a22.649 22.649 0 00-2.498-.139c-12.976 0-23.533 10.557-23.533 23.532a7.5 7.5 0 1015.001.001c0-4.705 3.828-8.532 8.533-8.532 1.488 0 2.947.421 4.335 1.252a7.498 7.498 0 0011.337-5.981c.657-10.833 9.618-19.319 20.399-19.319 3.409 0 6.774.921 10 2.738a7.499 7.499 0 0010.93-4.615c4.709-17.774 20.825-30.188 39.191-30.188 6.96 0 13.855 1.82 19.939 5.262a7.5 7.5 0 009.369-1.625c10.796-12.5 26.41-19.669 42.837-19.669 14.045 0 27.549 5.243 38.023 14.762a7.5 7.5 0 0010.249-.15C375.524 23.036 395.39 15 416.323 15 460.809 15 497 51.192 497 95.677s-36.191 80.677-80.677 80.677c-29.535 0-56.686-16.126-70.857-42.085a7.5 7.5 0 00-9.721-3.218c-7.522 3.465-15.473 5.222-23.632 5.222-16.427 0-32.041-7.169-42.837-19.669a7.5 7.5 0 00-9.369-1.625 40.578 40.578 0 01-19.939 5.262c-12.674 0-24.402-5.803-32.175-15.921a7.503 7.503 0 00-5.91-2.931h-.037a7.502 7.502 0 00-5.902 2.872c-3.968 5.061-9.835 7.963-16.097 7.963a7.5 7.5 0 000 15 35.05 35.05 0 0021.669-7.474c10.291 9.928 23.913 15.49 38.452 15.49a55.58 55.58 0 0021.972-4.547c13.363 13.145 31.342 20.58 50.173 20.58a70.694 70.694 0 0023.607-4.04c17.524 27.375 47.824 44.121 80.603 44.121 52.757 0 95.677-42.921 95.677-95.677C512 42.921 469.08 0 416.323 0z"/><path d="M191.871 416.839a7.5 7.5 0 00-7.5 7.5v16.032a7.5 7.5 0 0015 0v-16.032a7.5 7.5 0 00-7.5-7.5zM223.936 416.839a7.5 7.5 0 00-7.5 7.5v16.032a7.5 7.5 0 0015 0v-16.032a7.5 7.5 0 00-7.5-7.5zM256 416.839a7.5 7.5 0 00-7.5 7.5v16.032a7.5 7.5 0 0015 0v-16.032a7.5 7.5 0 00-7.5-7.5zM288.064 416.839a7.5 7.5 0 00-7.5 7.5v16.032a7.5 7.5 0 0015 0v-16.032a7.5 7.5 0 00-7.5-7.5zM320.129 416.839a7.5 7.5 0 00-7.5 7.5v16.032a7.5 7.5 0 0015 0v-16.032a7.5 7.5 0 00-7.5-7.5zM352.193 416.839a7.5 7.5 0 00-7.5 7.5v16.032a7.5 7.5 0 0015 0v-16.032a7.5 7.5 0 00-7.5-7.5zM384.258 416.839a7.5 7.5 0 00-7.5 7.5v16.032a7.5 7.5 0 0015 0v-16.032a7.5 7.5 0 00-7.5-7.5zM416.323 416.839a7.5 7.5 0 00-7.5 7.5v16.032a7.5 7.5 0 0015 0v-16.032a7.5 7.5 0 00-7.5-7.5z"/></svg><svg viewBox="0 0 16 16.003" id="inst" xmlns="http://www.w3.org/2000/svg"><g><path d="M15.96 4.7a5.848 5.848 0 00-.372-1.941A4.1 4.1 0 0013.246.422 5.863 5.863 0 0011.305.05C10.451.009 10.176 0 8.003 0s-2.445.009-3.3.047a5.849 5.849 0 00-1.939.372 3.9 3.9 0 00-1.419.925A3.94 3.94 0 00.422 2.76 5.863 5.863 0 00.051 4.7C.01 5.558 0 5.83 0 8s.01 2.448.051 3.3a5.847 5.847 0 00.372 1.941 4.1 4.1 0 002.338 2.343 5.863 5.863 0 001.941.372C5.551 15.994 5.828 16 8 16s2.445-.009 3.3-.047a5.846 5.846 0 001.941-.372 4.093 4.093 0 002.342-2.341 5.867 5.867 0 00.368-1.94c.037-.853.047-1.125.047-3.3s-.001-2.442-.038-3.3zm-1.441 6.534a4.386 4.386 0 01-.275 1.485 2.655 2.655 0 01-1.519 1.519 4.4 4.4 0 01-1.485.275c-.844.038-1.1.047-3.232.047s-2.392-.009-3.233-.047a4.384 4.384 0 01-1.485-.275 2.463 2.463 0 01-.919-.6 2.488 2.488 0 01-.6-.919 4.4 4.4 0 01-.275-1.485c-.038-.844-.047-1.1-.047-3.233s.009-2.392.047-3.232a4.384 4.384 0 01.275-1.485 2.432 2.432 0 01.6-.919 2.484 2.484 0 01.919-.6A4.4 4.4 0 014.777 1.5c.844-.037 1.1-.047 3.232-.047s2.392.009 3.233.047a4.386 4.386 0 011.485.275 2.461 2.461 0 01.919.6 2.487 2.487 0 01.6.919 4.4 4.4 0 01.275 1.485c.037.844.047 1.1.047 3.232s-.017 2.384-.05 3.228zm0 0"/><path d="M8.003 3.892a4.111 4.111 0 104.111 4.111 4.112 4.112 0 00-4.111-4.111zm0 6.778a2.667 2.667 0 112.667-2.667 2.667 2.667 0 01-2.667 2.667zm0 0"/><path d="M13.237 3.729a.96.96 0 11-.96-.96.96.96 0 01.96.96zm0 0"/></g></svg></svg>